<svg width="411" height="413" viewBox="0 0 411 413" fill="none" xmlns="http://www.w3.org/2000/svg">
            <path fill-rule="evenodd" clip-rule="evenodd" d="M205.5 30C108.862 30 30 109.162 30 206.5C30 253.558 48.4317 296.367 78.3931 328.038C77.3089 335.358 76.8425 342.874 77.0469 350.533C77.0469 353.403 77.0469 356.751 77.5256 360.578C78.0044 368.71 84.7067 374.451 92.8452 373.972C100.984 373.494 106.728 366.797 106.25 358.665C105.844 355.826 105.782 353.675 105.773 351.628C134.127 371.403 168.512 383 205.5 383C243.834 383 279.371 370.544 308.298 349.437C308.293 349.802 308.285 350.167 308.276 350.533C308.276 351.674 308.167 352.924 308.053 354.232C307.928 355.664 307.797 357.164 307.797 358.665C307.318 366.318 313.063 373.494 321.202 373.972H322.159C323.648 373.972 325.082 373.755 326.431 373.35C292.483 398.27 250.676 413 205.5 413C92.1453 413 0 320.258 0 206.5C0 92.7422 92.1453 0 205.5 0C318.855 0 411 92.7422 411 206.5C411 271.262 381.136 329.213 334.495 367.119C335.65 365.208 336.371 362.988 336.521 360.578C337 356.751 337 353.881 337 350.533V345.749C336.862 338.821 336.192 332.035 335.028 325.427C363.558 294.033 381 252.276 381 206.5C381 109.162 302.138 30 205.5 30ZM334.495 367.119C332.694 370.098 329.836 372.326 326.431 373.35C329.171 371.338 331.86 369.261 334.495 367.119ZM335.028 325.427C324.063 263.134 269.314 216.729 204.39 218.027C139.817 219.308 87.467 266.776 78.3931 328.038C86.6852 336.803 95.8605 344.715 105.773 351.628C105.771 351.261 105.771 350.897 105.771 350.533V346.227C106.728 290.259 153.166 245.771 209.178 247.207C264.824 248.157 309.13 293.96 308.298 349.437C318 342.359 326.958 334.307 335.028 325.427ZM205.5 101.5C181.669 101.5 162.5 120.669 162.5 144.5C162.5 168.331 181.669 187.5 205.5 187.5C229.331 187.5 248.5 168.331 248.5 144.5C248.5 120.669 229.331 101.5 205.5 101.5ZM133.5 144.5C133.5 104.653 165.653 72.5 205.5 72.5C245.347 72.5 277.5 104.653 277.5 144.5C277.5 184.347 245.347 216.5 205.5 216.5C165.653 216.5 133.5 184.347 133.5 144.5Z" stroke="#F9FAFF"/>
            </svg>